<?xml version="1.0" encoding="UTF-8" standalone="no"?>
<svg
   xmlns:dc="http://purl.org/dc/elements/1.1/"
   xmlns:cc="http://creativecommons.org/ns#"
   xmlns:rdf="http://www.w3.org/1999/02/22-rdf-syntax-ns#"
   xmlns:svg="http://www.w3.org/2000/svg"
   xmlns="http://www.w3.org/2000/svg"
   xmlns:sodipodi="http://sodipodi.sourceforge.net/DTD/sodipodi-0.dtd"
   xmlns:inkscape="http://www.inkscape.org/namespaces/inkscape"
   id="food-logo"
   preserveAspectRatio="xMidYMid meet"
   viewBox="0 0 800 533"
   version="1.1"
   sodipodi:docname="food.svg"
   width="800"
   height="533"
   inkscape:version="0.92.2 5c3e80d, 2017-08-06">
  <metadata
     id="metadata22">
    <rdf:RDF>
      <cc:Work
         rdf:about="">
        <dc:format>image/svg+xml</dc:format>
        <dc:type
           rdf:resource="http://purl.org/dc/dcmitype/StillImage" />
        <dc:title></dc:title>
      </cc:Work>
    </rdf:RDF>
  </metadata>
  <defs
     id="defs20" />
  <sodipodi:namedview
     pagecolor="#ffffff"
     bordercolor="#666666"
     borderopacity="1"
     objecttolerance="10"
     gridtolerance="10"
     guidetolerance="10"
     inkscape:pageopacity="0"
     inkscape:pageshadow="2"
     inkscape:window-width="2560"
     inkscape:window-height="1395"
     id="namedview18"
     showgrid="false"
     inkscape:zoom="0.78666667"
     inkscape:cx="7.6271186"
     inkscape:cy="150"
     inkscape:window-x="0"
     inkscape:window-y="1"
     inkscape:window-maximized="1"
     inkscape:current-layer="food-logo" />
  <rect
     style="opacity:1;fill:#808080;fill-opacity:1;stroke:none;stroke-width:20.37108803;stroke-linecap:round;stroke-linejoin:round;stroke-miterlimit:4;stroke-dasharray:none;stroke-dashoffset:0;stroke-opacity:1"
     id="rect866"
     width="800"
     height="533"
     x="0"
     y="0" />
  <path
     style="fill:#cccccc;stroke-width:1.42405415"
     d="m 206.27483,292.13306 c -0.47194,3.4739 -0.90685,6.94 -1.25717,10.3689 -1.73171,16.94959 -2.28439,33.69329 15.30858,50.73193 13.28514,12.86653 33.68778,19.819 33.68778,41.07506 h 7.8323 c 0,-21.25606 20.44715,-28.20853 33.73229,-41.07506 17.59297,-17.03864 17.04029,-33.78234 15.30858,-50.73193 -0.35033,-3.42895 -0.78605,-6.89494 -1.25996,-10.3689 z"
     id="glass-liquid"
     inkscape:connector-curvature="0" />
  <path
     inkscape:connector-curvature="0"
     d="m 249.83087,397.5129 -0.0883,33.50974 c -0.0972,36.89696 -19.27218,39.33636 -41.53969,41.8763 v 7.20928 c 33.13903,0 66.27791,0 99.41679,0 v -7.20928 c -22.26751,-2.53994 -41.50047,-4.9792 -41.50047,-41.8763 l -0.17872,-33.50974 z"
     style="fill:#cccccc;stroke-width:1.42405415"
     id="glass-stem" />
  <path
     inkscape:connector-curvature="0"
     d="m 217.47813,240.24392 c -5.705,18.62016 -10.29626,41.07509 -12.46047,62.25787 -1.73171,16.94959 -2.28439,33.69329 15.30858,50.73193 13.28514,12.86653 33.68778,19.819 33.68778,41.07506 2.61077,0 5.22154,0 7.8323,0 0,-21.25606 20.44715,-28.20853 33.73229,-41.07506 17.59297,-17.03864 17.04029,-33.78234 15.30858,-50.73193 -2.16421,-21.18278 -6.79997,-43.63771 -12.50498,-62.25787 -26.96802,0 -53.93605,0 -80.90408,0 z"
     style="fill:none;stroke:#cccccc;stroke-width:8.54432487"
     id="glass-outline" />
  <path
     style="fill:#cccccc;stroke-width:1.42405415"
     d="m 276.47626,216.65819 c -0.0847,1.70881 -0.14185,3.44779 -0.14185,5.2512 h 35.86836 c 37.2154,121.14489 9.97733,133.50058 -28.23632,165.5908 -6.94497,5.8321 -5.45018,54.4899 -0.93454,60.81158 10.14022,14.19552 25.47661,5.51297 34.08552,14.8858 4.85164,5.28211 4.98419,10.66418 4.98419,12.63849 h 81.73014 V 216.65819 Z"
     id="bottle-liquid"
     inkscape:connector-curvature="0" />
  <path
     inkscape:connector-curvature="0"
     d="m 320.25747,57.16395 h 39.82937 v 102.39804 c 18.16704,0 43.74552,25.76561 43.74552,49.44174 v 266.83218 h -81.73074 c 0,-1.97431 -0.13255,-7.35638 -4.98419,-12.63848 -8.60891,-9.37284 -23.94452,-0.69009 -34.08474,-14.88564 -4.51564,-6.32166 -6.01079,-54.97931 0.93418,-60.81141 38.21365,-32.09022 65.45154,-44.44556 28.23615,-165.59045 h -35.86766 c 0,-48.40373 31.42628,-62.34794 43.92211,-62.34794 z"
     style="fill:none;stroke:#cccccc;stroke-width:8.54432487"
     id="bottle-outline" />
  <path
     inkscape:connector-curvature="0"
     d="m 486.91222,231.73361 c 0,136.88963 22.81677,176.07626 9.89162,231.9785 -5.40029,23.35677 -33.60411,20.31328 -38.30079,0 -11.92773,-51.58878 9.42525,-99.0691 9.42525,-233.20062 0,-18.36289 -15.223,-18.83739 -23.4613,-42.52881 -7.35595,-21.1539 0.72328,-135.07752 6.3745,-135.07752 8.42826,0 1.94896,98.65591 9.18671,98.65591 7.30213,0 0.53317,-98.65591 8.22734,-98.65591 7.6943,0 1.23109,98.65591 9.77499,98.65591 8.63005,0 -0.0527,-98.65591 7.63919,-98.65591 7.69161,0 3.31876,98.65591 10.36313,98.65591 7.75497,0 -0.25462,-98.65591 7.05106,-98.65591 5.88704,0 12.78189,107.14256 9.1205,129.77335 -3.66153,22.63078 -25.2922,26.91918 -25.2922,49.0551 z"
     style="fill:#cccccc;stroke-width:1.42405415"
     id="fork" />
  <path
     inkscape:connector-curvature="0"
     d="m 586.98179,281.81376 c 0,108.82963 21.573,146.9354 9.17718,185.36023 -5.90598,18.3075 -31.17654,16.15006 -35.534,0 -10.04272,-37.22036 8.74398,-64.54832 8.74398,-183.89018 0,-14.59898 -21.03955,-34.95697 -21.03955,-72.57721 0,-66.88583 9.54302,-157.814684 30.33577,-157.814684 19.93292,0 15.36897,117.214614 15.36897,181.320124 2.52655,17.44879 -6.79588,34.62004 -7.05235,47.60172 z"
     style="fill:#cccccc;stroke-width:1.42405415"
     id="knife" />
</svg>
